<?xml version="1.0" standalone="no"?><!-- Generator: Gravit.io --><svg xmlns="http://www.w3.org/2000/svg" xmlns:xlink="http://www.w3.org/1999/xlink" style="isolation:isolate" viewBox="0 0 560 315" width="560" height="315"><defs><clipPath id="_clipPath_ApMBTW60pulyV2FT1YQxUCxtp0DwgHgv"><rect width="560" height="315"/></clipPath></defs><g clip-path="url(#_clipPath_ApMBTW60pulyV2FT1YQxUCxtp0DwgHgv)"><clipPath id="_clipPath_aWKwyFfYXVRwHfucsk8rHBKyJzefT3ts"><rect x="0" y="0" width="560" height="315" transform="matrix(1,0,0,1,0,0)" fill="rgb(255,255,255)"/></clipPath><g clip-path="url(#_clipPath_aWKwyFfYXVRwHfucsk8rHBKyJzefT3ts)"><g><g><g/><linearGradient id="_lgradient_0" x1="-0.012247155499367893" y1="-0.001545160837196239" x2="1" y2="0.5618239921337276" gradientTransform="matrix(560,0,0,315,0,0)" gradientUnits="userSpaceOnUse"><stop offset="1.3043478260869565%" stop-opacity="0.77" style="stop-color:rgb(124,179,173)"/><stop offset="99.1304347826087%" stop-opacity="0.25" style="stop-color:rgb(36,202,158)"/></linearGradient><rect x="0" y="0" width="560" height="315" transform="matrix(1,0,0,1,0,0)" fill="url(#_lgradient_0)"/><g style="opacity:0.49;"><g style="opacity:0.49;"><g style="mix-blend-mode:normal;" opacity="0.49"><g transform="matrix(1,0,0,1,355.961,227)"><text transform="matrix(1,0,0,1,0,21.377)" style="font-family:&quot;Open Sans&quot;;font-weight:400;font-size:20px;font-style:normal;fill:#1C5F56;stroke:none;">Code-For-Iraq</text></g></g></g></g><g style="opacity:0.49;"><g style="opacity:0.49;"><g style="mix-blend-mode:normal;" opacity="0.49"><g transform="matrix(1,0,0,1,355.961,15)"><text transform="matrix(1,0,0,1,0,21.377)" style="font-family:&quot;Open Sans&quot;;font-weight:400;font-size:20px;font-style:normal;fill:#1C5F56;stroke:none;">Code-For-Iraq</text></g></g></g></g><g style="opacity:0.49;"><g style="opacity:0.49;"><g style="mix-blend-mode:normal;" opacity="0.49"><g transform="matrix(1,0,0,1,29.461,227)"><text transform="matrix(1,0,0,1,0,21.377)" style="font-family:&quot;Open Sans&quot;;font-weight:400;font-size:20px;font-style:normal;fill:#1C5F56;stroke:none;">Code-For-Iraq</text></g></g></g></g><g style="opacity:0.49;"><g style="opacity:0.49;"><g style="mix-blend-mode:normal;" opacity="0.49"><g transform="matrix(0.968,-0.252,0.252,0.968,218.272,127.013)"><text transform="matrix(1,0,0,1,0,21.377)" style="font-family:&quot;Open Sans&quot;;font-weight:400;font-size:20px;font-style:normal;fill:#1C5F56;stroke:none;">Code-For-Iraq</text></g></g></g></g><g style="opacity:0.49;"><g style="opacity:0.49;"><g style="mix-blend-mode:normal;" opacity="0.49"><g transform="matrix(1,0,0,1,44.461,15)"><text transform="matrix(1,0,0,1,0,21.377)" style="font-family:&quot;Open Sans&quot;;font-weight:400;font-size:20px;font-style:normal;fill:#1C5F56;stroke:none;">Code-For-Iraq</text></g></g></g></g></g></g></g></g></svg>